<svg xmlns="http://www.w3.org/2000/svg" viewBox="0 0 600 600">
  <g fill="#F97316" fill-rule="evenodd">
    <path d="M 307.5000 4.8446 L 431.0641 76.1843 A 15.0000 15.0000 0 0 1 438.5641 89.1747 L 438.5641 231.8542 A 15.0000 15.0000 0 0 1 431.0641 244.8446 L 307.5000 316.1843 A 15.0000 15.0000 0 0 1 292.5000 316.1843 L 168.9359 244.8446 A 15.0000 15.0000 0 0 1 161.4359 231.8542 L 161.4359 89.1747 A 15.0000 15.0000 0 0 1 168.9359 76.1843 L 292.5000 4.8446 A 15.0000 15.0000 0 0 1 307.5000 4.8446 Z"/>
    <path d="M 146.4359 283.8157 L 270.0000 355.1554 A 15.0000 15.0000 0 0 1 277.5000 368.1458 L 277.5000 510.8253 A 15.0000 15.0000 0 0 1 270.0000 523.8157 L 146.4359 595.1554 A 15.0000 15.0000 0 0 1 131.4359 595.1554 L 7.8719 523.8157 A 15.0000 15.0000 0 0 1 0.3719 510.8253 L 0.3719 368.1458 A 15.0000 15.0000 0 0 1 7.8719 355.1554 L 131.4359 283.8157 A 15.0000 15.0000 0 0 1 146.4359 283.8157 Z"/>
    <path d="M 468.5641 283.8157 L 592.1281 355.1554 A 15.0000 15.0000 0 0 1 599.6281 368.1458 L 599.6281 510.8253 A 15.0000 15.0000 0 0 1 592.1281 523.8157 L 468.5641 595.1554 A 15.0000 15.0000 0 0 1 453.5641 595.1554 L 330.0000 523.8157 A 15.0000 15.0000 0 0 1 322.5000 510.8253 L 322.5000 368.1458 A 15.0000 15.0000 0 0 1 330.0000 355.1554 L 453.5641 283.8157 A 15.0000 15.0000 0 0 1 468.5641 283.8157 Z M 467.2984 310.0850 L 570.0111 369.3862 A 12.4688 12.4688 0 0 1 576.2454 380.1844 L 576.2454 498.7867 A 12.4688 12.4688 0 0 1 570.0111 509.5850 L 467.2984 568.8862 A 12.4688 12.4688 0 0 1 454.8297 568.8862 L 352.1171 509.5850 A 12.4688 12.4688 0 0 1 345.8827 498.7867 L 345.8827 380.1844 A 12.4688 12.4688 0 0 1 352.1171 369.3862 L 454.8297 310.0850 A 12.4688 12.4688 0 0 1 467.2984 310.0850 Z"/>
  </g>
</svg>
